<?xml version="1.0" encoding="UTF-8" standalone="no"?>
<svg
   xmlns:dc="http://purl.org/dc/elements/1.1/"
   xmlns:cc="http://creativecommons.org/ns#"
   xmlns:rdf="http://www.w3.org/1999/02/22-rdf-syntax-ns#"
   xmlns:svg="http://www.w3.org/2000/svg"
   xmlns="http://www.w3.org/2000/svg"
   xmlns:sodipodi="http://sodipodi.sourceforge.net/DTD/sodipodi-0.dtd"
   xmlns:inkscape="http://www.inkscape.org/namespaces/inkscape"
   version="1.1"
   id="Layer_1"
   x="0px"
   y="0px"
   viewBox="0 0 32 32"
   style="enable-background:new 0 0 32 32;"
   xml:space="preserve"
   sodipodi:docname="Hand_Nerixs.svg"
   inkscape:version="0.92.4 (5da689c313, 2019-01-14)"><metadata
   id="metadata3741"><rdf:RDF><cc:Work
       rdf:about=""><dc:format>image/svg+xml</dc:format><dc:type
         rdf:resource="http://purl.org/dc/dcmitype/StillImage" /><dc:title></dc:title></cc:Work></rdf:RDF></metadata><defs
   id="defs3739" /><sodipodi:namedview
   pagecolor="#ffffff"
   bordercolor="#666666"
   borderopacity="1"
   objecttolerance="10"
   gridtolerance="10"
   guidetolerance="10"
   inkscape:pageopacity="0"
   inkscape:pageshadow="2"
   inkscape:window-width="3840"
   inkscape:window-height="2004"
   id="namedview3737"
   showgrid="false"
   inkscape:zoom="52.40625"
   inkscape:cx="16"
   inkscape:cy="16"
   inkscape:window-x="-16"
   inkscape:window-y="-16"
   inkscape:window-maximized="1"
   inkscape:current-layer="Layer_1" />
<g
   id="g3734"
   transform="matrix(1.3051517,0,0,-1.2040061,3.8663666,41.198745)">
	<path
   style="fill:#fffffe;stroke:#000001;stroke-miterlimit:10"
   d="m 8.95354,21.00077 v 4.01394 c 0,0 0,1.33798 1.33798,1.33798 1.33798,0 1.33798,-1.33798 1.33798,-1.33798 v -4.01394"
   id="path3728"
   inkscape:connector-curvature="0" />
	<path
   style="fill:#fffffe;stroke:#000001;stroke-miterlimit:10"
   d="m 11.6295,21.00077 v 3.34495 c 0,0 0,1.33798 1.33798,1.33798 1.33798,0 1.33798,-1.33798 1.33798,-1.33798 v -3.34495"
   id="path3730"
   inkscape:connector-curvature="0" />
	<path
   style="fill:#fffffe;stroke:#000001;stroke-miterlimit:10"
   d="m 14.30546,21.00077 v 2.67596 c 0,0 0,1.33798 1.33798,1.33798 1.33798,0 1.33798,-1.33798 1.33798,-1.33798 v -6.3554 c 0,0 0.66899,-6.6899 -6.02091,-6.6899 0,0 -2.46051,-0.13066 -4.68293,2.00697 l -4.68293,5.35192 c 0,0 -1.33798,1.33798 0,2.67596 0,0 1.00348,1.00348 2.67596,-0.66899 l 1.16162,-1.16162 c 0.31196,-0.31196 0.84535,-0.09102 0.84535,0.35016 v 10.8463 c 0,0 0,1.33798 1.33798,1.33798 1.33798,0 1.33798,-1.33798 1.33798,-1.33798 v -9.03136"
   id="path3732"
   inkscape:connector-curvature="0" />
</g>
</svg>